<?xml version="1.0" encoding="UTF-8" standalone="no"?>
<!-- Created with Inkscape (http://www.inkscape.org/) -->

<svg
   xmlns:dc="http://purl.org/dc/elements/1.1/"
   xmlns:cc="http://creativecommons.org/ns#"
   xmlns:rdf="http://www.w3.org/1999/02/22-rdf-syntax-ns#"
   xmlns:svg="http://www.w3.org/2000/svg"
   xmlns="http://www.w3.org/2000/svg"
   xmlns:sodipodi="http://sodipodi.sourceforge.net/DTD/sodipodi-0.dtd"
   xmlns:inkscape="http://www.inkscape.org/namespaces/inkscape"
   width="210mm"
   height="297mm"
   viewBox="0 0 744.09448819 1052.3622047"
   id="svg2"
   version="1.1"
   inkscape:version="0.91 r13725"
   sodipodi:docname="model-separate.svg">
  <defs
     id="defs4" />
  <sodipodi:namedview
     id="base"
     pagecolor="#ffffff"
     bordercolor="#666666"
     borderopacity="1.0"
     inkscape:pageopacity="0.0"
     inkscape:pageshadow="2"
     inkscape:zoom="0.83764957"
     inkscape:cx="93.146317"
     inkscape:cy="517.4358"
     inkscape:document-units="px"
     inkscape:current-layer="layer1"
     showgrid="true"
     inkscape:snap-grids="true"
     inkscape:window-width="1920"
     inkscape:window-height="1020"
     inkscape:window-x="0"
     inkscape:window-y="31"
     inkscape:window-maximized="1">
    <inkscape:grid
       type="xygrid"
       id="grid4206" />
  </sodipodi:namedview>
  <metadata
     id="metadata7">
    <rdf:RDF>
      <cc:Work
         rdf:about="">
        <dc:format>image/svg+xml</dc:format>
        <dc:type
           rdf:resource="http://purl.org/dc/dcmitype/StillImage" />
        <dc:title></dc:title>
      </cc:Work>
    </rdf:RDF>
  </metadata>
  <g
     inkscape:label="Layer 1"
     inkscape:groupmode="layer"
     id="layer1">
    <path
       style="fill:none;fill-rule:evenodd;stroke:#000000;stroke-width:8;stroke-linecap:round;stroke-linejoin:miter;stroke-miterlimit:4;stroke-dasharray:none;stroke-opacity:1"
       d="M 88.906841,580.35345 256.89385,517.88591"
       id="path4185"
       inkscape:connector-curvature="0" />
    <path
       style="fill:none;fill-rule:evenodd;stroke:#000000;stroke-width:8;stroke-linecap:round;stroke-linejoin:miter;stroke-miterlimit:4;stroke-dasharray:none;stroke-opacity:1"
       d="M 355.0666,444.62049 490.93874,327.74197"
       id="path4185-6"
       inkscape:connector-curvature="0" />
    <path
       sodipodi:type="spiral"
       style="fill:none;fill-rule:evenodd;stroke:#000000;stroke-width:3.30822659;stroke-linecap:butt;stroke-linejoin:miter;stroke-miterlimit:4;stroke-dasharray:none;stroke-opacity:1"
       id="path4204"
       sodipodi:cx="318.88571"
       sodipodi:cy="464.84833"
       sodipodi:expansion="1"
       sodipodi:revolution="3.2345259"
       sodipodi:radius="24.103579"
       sodipodi:argument="-20.261698"
       sodipodi:t0="0"
       d="m 318.88571,464.84833 c 0.17709,-1.10681 1.57933,-0.30735 1.8396,0.29433 0.7053,1.63052 -0.9304,3.15922 -2.42827,3.38486 -2.67932,0.40361 -4.80319,-2.04862 -4.93011,-4.56219 -0.18626,-3.68878 3.17563,-6.47828 6.69612,-6.47538 4.69225,0.004 8.16554,4.30493 8.02063,8.83005 -0.18235,5.69439 -5.43512,9.8589 -10.96397,9.56589 -6.69618,-0.35487 -11.55575,-6.56577 -11.11116,-13.0979 0.52395,-7.69789 7.6967,-13.25478 15.23183,-12.65641 8.69961,0.69084 14.95528,8.82781 14.20168,17.36575 -0.85629,9.70135 -9.95906,16.65679 -19.49968,15.74694 -10.70314,-1.02072 -18.35904,-11.09041 -17.2922,-21.63361 1.1844,-11.70496 12.22183,-20.06185 23.76753,-18.83746 11.80865,1.25228 20.6703,11.79743 20.52612,23.55483" />
    <path
       style="fill:none;fill-rule:evenodd;stroke:#000000;stroke-width:2.5;stroke-linecap:butt;stroke-linejoin:miter;stroke-miterlimit:4;stroke-dasharray:none;stroke-opacity:1"
       d="m 287.76301,504.49138 13.16977,0.24949 c 0,0 0.14196,-12.0722 3.09608,-12.0763 5.79062,-0.009 11.89035,23.65344 6.09968,23.65344 -4.06645,0 0.30892,-23.65344 6.09968,-23.65344 5.79066,0 11.89034,23.65344 6.09972,23.65344 -6.09972,0 0.30892,-23.65344 6.09968,-23.65344 5.79066,0 11.89034,23.65344 6.09967,23.65344 -6.09967,0 0.30939,-23.71065 6.09973,-23.65344 2.88083,0.0283 2.92445,11.82672 2.92445,11.82672 l 15.37462,0"
       id="path4208"
       inkscape:connector-curvature="0"
       sodipodi:nodetypes="ccssssssscc" />
    <path
       style="fill:none;fill-rule:evenodd;stroke:#000000;stroke-width:2.5;stroke-linecap:butt;stroke-linejoin:miter;stroke-miterlimit:4;stroke-dasharray:none;stroke-opacity:1"
       d="m 275.58019,504.69591 0.24949,-13.16977 c 0,0 -12.0722,-0.14196 -12.0763,-3.09608 -0.009,-5.79062 23.65344,-11.89035 23.65344,-6.09968 0,4.06645 -23.65344,-0.30892 -23.65344,-6.09968 0,-5.79066 23.65344,-11.89034 23.65344,-6.09972 0,6.09972 -23.65344,-0.30892 -23.65344,-6.09968 0,-5.79066 23.65344,-11.89034 23.65344,-6.09967 0,6.09967 -23.71065,-0.30939 -23.65344,-6.09973 0.0283,-2.88083 11.82672,-2.92445 11.82672,-2.92445 l 0,-15.37462"
       id="path4208-2"
       inkscape:connector-curvature="0"
       sodipodi:nodetypes="ccssssssscc" />
    <path
       style="opacity:1;fill:#000000;fill-opacity:1;fill-rule:nonzero;stroke:#000000;stroke-width:1.59042954;stroke-linecap:round;stroke-linejoin:miter;stroke-miterlimit:4;stroke-dasharray:none;stroke-dashoffset:0;stroke-opacity:1"
       id="path4225"
       sodipodi:type="arc"
       sodipodi:cx="172.75267"
       sodipodi:cy="547.69989"
       sodipodi:rx="15.904296"
       sodipodi:ry="15.904296"
       sodipodi:start="0"
       sodipodi:end="6.2406865"
       sodipodi:open="true"
       d="m 188.65697,547.69989 a 15.904296,15.904296 0 0 1 -15.73532,15.9034 15.904296,15.904296 0 0 1 -16.06969,-15.56547 15.904296,15.904296 0 0 1 15.39386,-16.23415 15.904296,15.904296 0 0 1 16.39679,15.22051" />
    <path
       style="opacity:1;fill:#000000;fill-opacity:1;fill-rule:nonzero;stroke:#000000;stroke-width:1.59042954;stroke-linecap:round;stroke-linejoin:miter;stroke-miterlimit:4;stroke-dasharray:none;stroke-dashoffset:0;stroke-opacity:1"
       id="path4225-4"
       sodipodi:type="arc"
       sodipodi:cx="425.8418"
       sodipodi:cy="381.30991"
       sodipodi:rx="15.904296"
       sodipodi:ry="15.904296"
       sodipodi:start="0"
       sodipodi:end="6.2406865"
       sodipodi:open="true"
       d="m 441.74609,381.30991 a 15.904296,15.904296 0 0 1 -15.73532,15.90339 15.904296,15.904296 0 0 1 -16.06968,-15.56546 15.904296,15.904296 0 0 1 15.39386,-16.23415 15.904296,15.904296 0 0 1 16.39678,15.22051"
       inkscape:transform-center-x="207.7241"
       inkscape:transform-center-y="5.9691422" />
  </g>
</svg>
